#!OML:ASF H:\LiuWeirdWalks\Patient Classification 1\Patient 1\Session 1\male.ASF
:FULLY-SPECIFIED
:DEGREES
729
root 0.614884 18.0822 40.6912 3.16952 -0.531413 0.755014
lowerback -3.93593 -2.83054 -0.447069
upperback -1.21932 -3.80859 3.79985
thorax 1.23891 -1.90897 3.96827
lowerneck -7.97186 -11.2149 -8.67091
upperneck 19.1538 -14.6747 2.33639
head 8.06223 -7.41295 0.699145
rclavicle 7.28049e-015 1.90833e-014
rhumerus -19.0417 0.310521 -72.4709
rradius 45.0471
rwrist -13.5166
rhand -16.2395 3.16442
rfingers 7.12502
rthumb 9.96908 -26.5795
lclavicle 7.28049e-015 1.90833e-014
lhumerus -33.2517 20.298 75.1456
lradius 16.4534
lwrist -15.1334
lhand -17.2524 -3.0767
lfingers 7.12502
lthumb 8.99178 26.7117
rfemur -11.469 3.31474 20.5925
rtibia 31.914
rfoot -8.38464 -15.0842
rtoes -3.16627
lfemur -7.51723 -2.5435 -17.3
ltibia 28.6
lfoot -5.45888 13.7923
ltoes -6.426
730
root 0.623202 18.0841 40.7152 3.13034 -0.465993 0.604158
lowerback -3.99588 -2.80892 -0.438475
upperback -1.30473 -3.77916 3.85284
thorax 1.18541 -1.89294 4.01962
lowerneck -7.48963 -11.5592 -8.98635
upperneck 19.1461 -15.1946 2.54311
head 8.04853 -7.67105 0.776238
rclavicle 1.13059e-015 -3.65764e-014
rhumerus -18.5803 0.325906 -72.3873
rradius 44.8348
rwrist -13.4574
rhand -16.3354 3.15787
rfingers 7.12502
rthumb 9.87658 -26.5905
lclavicle 1.13059e-015 -3.65764e-014
lhumerus -34.5194 23.0021 72.6497
lradius 15.7815
lwrist -16.8269
lhand -17.3738 -2.88556
lfingers 7.12502
lthumb 8.87462 26.9078
rfemur -11.3187 3.32311 20.7461
rtibia 31.8728
rfoot -8.33889 -15.1352
rtoes -3.2594
lfemur -7.25011 -2.81335 -17.2933
ltibia 28.4026
lfoot -5.4506 14.359
ltoes -6.09375
731
root 0.630437 18.0886 40.7402 3.22151 -0.397012 0.577974
lowerback -4.2267 -2.76195 -0.515993
upperback -1.41426 -3.71349 3.85014
thorax 1.20146 -1.85905 4.05594
lowerneck -7.01369 -11.9325 -9.31823
upperneck 19.1429 -15.7599 2.77354
head 8.04678 -7.9499 0.856781
rclavicle 1.70831e-014 -7.95139e-015
rhumerus -18.1844 0.200562 -72.2866
rradius 44.6019
rwrist -13.4366
rhand -16.4983 3.10786
rfingers 7.12502
rthumb 9.71942 -26.6479
lclavicle 1.70831e-014 -7.95139e-015
lhumerus -35.8651 25.4924 70.0878
lradius 15.2076
lwrist -18.4141
lhand -17.4584 -2.64838
lfingers 7.12502
lthumb 8.79301 27.1484
rfemur -11.3305 3.34042 20.7542
rtibia 31.8692
rfoot -8.30076 -15.1925
rtoes -3.33518
lfemur -7.12179 -3.04234 -17.4139
ltibia 28.1862
lfoot -5.4397 14.8816
ltoes -5.69966
732
root 0.636933 18.0949 40.7652 3.40835 -0.325546 0.646537
lowerback -4.58048 -2.7036 -0.672123
upperback -1.53334 -3.62967 3.81176
thorax 1.27718 -1.81649 4.09533
lowerneck -6.56351 -12.3192 -9.64282
upperneck 19.1396 -16.3459 3.00587
head 8.05394 -8.23775 0.932169
rclavicle 2.01269e-015 2.8625e-014
rhumerus -17.8269 -0.0142925 -72.1781
rradius 44.3511
rwrist -13.4793
rhand -16.7189 3.05498
rfingers 7.12502
rthumb 9.50657 -26.7106
lclavicle 2.01269e-015 2.8625e-014
lhumerus -37.2653 27.7413 67.5172
lradius 14.7449
lwrist -19.7797
lhand -17.499 -2.36224
lfingers 7.12502
lthumb 8.75383 27.4362
rfemur -11.4751 3.37113 20.6508
rtibia 31.9173
rfoot -8.27083 -15.2588
rtoes -3.40968
lfemur -7.08959 -3.22338 -17.6267
ltibia 27.9289
lfoot -5.41142 15.3618
ltoes -5.29227
733
root 0.64398 18.1015 40.7873 3.58263 -0.244098 0.722679
lowerback -4.91063 -2.67597 -0.861099
upperback -1.64701 -3.58416 3.77855
thorax 1.35015 -1.79322 4.15781
lowerneck -6.08749 -12.6711 -9.91103
upperneck 19.1015 -16.8868 3.20065
head 8.03671 -8.50515 0.996325
rclavicle 2.67365e-014 -9.54166e-015
rhumerus -17.485 -0.201533 -72.1122
rradius 44.0803
rwrist -13.6016
rhand -16.9938 3.01893
rfingers 7.12502
rthumb 9.24134 -26.7585
lclavicle 2.67365e-014 -9.54166e-015
lhumerus -38.7683 29.7516 64.9428
lradius 14.4217
lwrist -20.8396
lhand -17.4908 -2.02225
lfingers 7.12502
lthumb 8.7617 27.7759
rfemur -11.6267 3.41176 20.535
rtibia 31.983
rfoot -8.24273 -15.3251
rtoes -3.4608
lfemur -7.056 -3.3465 -17.8385
ltibia 27.6616
lfoot -5.3787 15.7739
ltoes -4.93165
734
root 0.650133 18.1097 40.8089 3.82792 -0.152893 0.850201
lowerback -5.30487 -2.65719 -1.11731
upperback -1.78053 -3.54572 3.74444
thorax 1.44251 -1.77351 4.25491
lowerneck -5.64288 -13.0187 -10.1764
upperneck 19.0754 -17.418 3.37495
head 8.02898 -8.76915 1.05209
rclavicle -3.50855e-014 2.06736e-014
rhumerus -17.1752 -0.395532 -72.0365
rradius 43.7886
rwrist -13.7851
rhand -17.2839 2.96331
rfingers 7.12502
rthumb 8.96139 -26.8264
lclavicle -3.50855e-014 2.06736e-014
lhumerus -40.2937 31.414 62.5049
lradius 14.2198
lwrist -21.5037
lhand -17.4845 -1.68906
lfingers 7.12502
lthumb 8.76786 28.1088
rfemur -11.8637 3.46798 20.3573
rtibia 32.054
rfoot -8.19642 -15.3955
rtoes -3.51746
lfemur -7.11306 -3.42422 -18.0868
ltibia 27.3985
lfoot -5.34281 16.1123
ltoes -4.63791
735
root 0.6577 18.1154 40.8249 3.88101 -0.0282373 0.801291
lowerback -5.41415 -2.65632 -1.21022
upperback -1.85346 -3.53901 3.76797
thorax 1.43468 -1.76921 4.32932
lowerneck -5.297 -13.3466 -10.398
upperneck 19.0622 -17.9128 3.51465
head 8.03504 -9.01381 1.08797
rclavicle 4.82053e-015 -7.95139e-015
rhumerus -16.8287 -0.564292 -71.9832
rradius 43.4709
rwrist -14.0181
rhand -17.5943 2.8952
rfingers 7.12502
rthumb 8.66183 -26.9071
lclavicle 4.82053e-015 -7.95139e-015
lhumerus -41.7826 32.7979 60.2382
lradius 14.1323
lwrist -21.7856
lhand -17.4819 -1.39212
lfingers 7.12502
lthumb 8.77033 28.4057
rfemur -11.8884 3.51595 20.3868
rtibia 32.1043
rfoot -8.1339 -15.4726
rtoes -3.59687
lfemur -6.99409 -3.4836 -18.1341
ltibia 27.1649
lfoot -5.32831 16.376
ltoes -4.40578
